<svg width="125" height="31" viewBox="0 0 125 31" fill="none" xmlns="http://www.w3.org/2000/svg">
<rect width="52" height="5" rx="2.5" fill="#004EF5"/>
<path d="M0 15.5C0 14.1193 1.11929 13 2.5 13H29.5C30.8807 13 32 14.1193 32 15.5V15.5C32 16.8807 30.8807 18 29.5 18H2.5C1.11929 18 0 16.8807 0 15.5V15.5Z" fill="#004EF5"/>
<path d="M0 28.5C0 27.1193 1.11929 26 2.5 26H39.5C40.8807 26 42 27.1193 42 28.5V28.5C42 29.8807 40.8807 31 39.5 31H2.5C1.11929 31 0 29.8807 0 28.5V28.5Z" fill="#004EF5"/>
<path d="M66.35 20V9.866H68.798L73.622 19.316H72.758L77.564 9.866H80.012V20H78.446V10.334H79.004L74 20H72.362L67.358 10.352H67.916V20H66.35ZM88.0612 20.234C86.8972 20.234 85.8652 20.012 84.9652 19.568C84.0772 19.112 83.3752 18.488 82.8592 17.696C82.3552 16.892 82.1032 15.968 82.1032 14.924C82.1032 13.868 82.3432 12.944 82.8232 12.152C83.3032 11.36 83.9692 10.742 84.8212 10.298C85.6732 9.854 86.6512 9.632 87.7552 9.632C88.8472 9.632 89.8012 9.872 90.6172 10.352C91.4332 10.832 92.0632 11.51 92.5072 12.386C92.9632 13.25 93.1912 14.258 93.1912 15.41H83.3632V14.096H92.4892L91.5172 14.69C91.4812 13.934 91.3012 13.28 90.9772 12.728C90.6532 12.176 90.2152 11.75 89.6632 11.45C89.1112 11.15 88.4692 11 87.7372 11C86.9452 11 86.2552 11.162 85.6672 11.486C85.0792 11.798 84.6172 12.242 84.2812 12.818C83.9572 13.394 83.7952 14.072 83.7952 14.852C83.7952 15.668 83.9812 16.376 84.3532 16.976C84.7252 17.576 85.2472 18.038 85.9192 18.362C86.5912 18.686 87.3832 18.848 88.2952 18.848C89.1232 18.848 89.9332 18.71 90.7252 18.434C91.5292 18.158 92.2492 17.78 92.8852 17.3V18.596C92.2612 19.1 91.5172 19.502 90.6532 19.802C89.7892 20.09 88.9252 20.234 88.0612 20.234ZM95.2484 9.866H96.8864V20H95.2484V9.866ZM103.96 9.866H105.616V20H103.96V9.866ZM96.1664 14.204H104.734V15.554H96.1664V14.204ZM118.173 20.234C117.009 20.234 115.977 20.012 115.077 19.568C114.189 19.112 113.493 18.488 112.989 17.696C112.497 16.904 112.251 15.98 112.251 14.924C112.251 13.868 112.497 12.944 112.989 12.152C113.493 11.36 114.189 10.742 115.077 10.298C115.977 9.854 117.009 9.632 118.173 9.632C119.361 9.632 120.399 9.854 121.287 10.298C122.187 10.742 122.883 11.36 123.375 12.152C123.879 12.944 124.131 13.868 124.131 14.924C124.131 15.968 123.879 16.892 123.375 17.696C122.883 18.5 122.187 19.124 121.287 19.568C120.399 20.012 119.361 20.234 118.173 20.234ZM108.291 20V9.866H109.947V20H108.291ZM109.173 15.554V14.204H113.223V15.554H109.173ZM118.173 18.848C119.061 18.848 119.817 18.686 120.441 18.362C121.077 18.038 121.569 17.582 121.917 16.994C122.265 16.406 122.439 15.716 122.439 14.924C122.439 14.132 122.265 13.442 121.917 12.854C121.569 12.266 121.077 11.81 120.441 11.486C119.817 11.162 119.061 11 118.173 11C117.321 11 116.571 11.162 115.923 11.486C115.287 11.81 114.795 12.266 114.447 12.854C114.099 13.442 113.925 14.132 113.925 14.924C113.925 15.716 114.099 16.406 114.447 16.994C114.795 17.582 115.287 18.038 115.923 18.362C116.571 18.686 117.321 18.848 118.173 18.848Z" fill="black"/>
</svg>
