<svg width="20" height="20" viewBox="0 0 20 20" fill="none" xmlns="http://www.w3.org/2000/svg">
<g clip-path="url(#clip0_2_23)">
<path d="M5.07157 19.9292C4.29798 19.9206 3.53167 19.7787 2.80627 19.5098C2.27656 19.314 1.7973 19.0023 1.40353 18.5975C0.997602 18.2045 0.685428 17.7251 0.490196 17.1949C0.22152 16.4695 0.0798397 15.7033 0.0713725 14.9298C0.0119608 13.6439 0 13.2582 0 10C0 6.74176 0.0131373 6.35745 0.0707843 5.07059C0.0802789 4.29741 0.222134 3.53156 0.490196 2.80627C0.686378 2.27647 0.99811 1.79702 1.40275 1.40275C1.79602 0.997182 2.27551 0.685298 2.80569 0.490196C3.53108 0.221297 4.2974 0.0794173 5.07098 0.0707843C6.35725 0.0119608 6.74353 0 10 0C13.2565 0 13.6425 0.0131373 14.9294 0.0707843C15.7028 0.0802118 16.4688 0.222068 17.1943 0.490196C17.7243 0.685556 18.2036 0.997331 18.5971 1.40255C19.0024 1.79613 19.3143 2.27561 19.5098 2.80569C19.7788 3.53107 19.9207 4.29738 19.9294 5.07098C19.9882 6.35784 20.0002 6.74314 20.0002 10.0004C20.0002 13.2576 19.9882 13.6429 19.9294 14.9298C19.9201 15.7033 19.7781 16.4694 19.5098 17.1949C19.3068 17.721 18.9959 18.1988 18.5971 18.5975C18.1983 18.9962 17.7205 19.307 17.1943 19.5098C16.4689 19.7788 15.7026 19.9207 14.929 19.9294C13.6433 19.9882 13.2569 20.0002 9.99961 20.0002C6.74235 20.0002 6.35706 19.9888 5.07137 19.9294" fill="url(#paint0_radial_2_23)"/>
<path d="M5.07157 19.9292C4.29798 19.9206 3.53167 19.7787 2.80627 19.5098C2.27656 19.314 1.7973 19.0023 1.40353 18.5975C0.997602 18.2045 0.685428 17.7251 0.490196 17.1949C0.22152 16.4695 0.0798397 15.7033 0.0713725 14.9298C0.0119608 13.6439 0 13.2582 0 10C0 6.74176 0.0131373 6.35745 0.0707843 5.07059C0.0802789 4.29741 0.222134 3.53156 0.490196 2.80627C0.686378 2.27647 0.99811 1.79702 1.40275 1.40275C1.79602 0.997182 2.27551 0.685298 2.80569 0.490196C3.53108 0.221297 4.2974 0.0794173 5.07098 0.0707843C6.35725 0.0119608 6.74353 0 10 0C13.2565 0 13.6425 0.0131373 14.9294 0.0707843C15.7028 0.0802118 16.4688 0.222068 17.1943 0.490196C17.7243 0.685556 18.2036 0.997331 18.5971 1.40255C19.0024 1.79613 19.3143 2.27561 19.5098 2.80569C19.7788 3.53107 19.9207 4.29738 19.9294 5.07098C19.9882 6.35784 20.0002 6.74314 20.0002 10.0004C20.0002 13.2576 19.9882 13.6429 19.9294 14.9298C19.9201 15.7033 19.7781 16.4694 19.5098 17.1949C19.3068 17.721 18.9959 18.1988 18.5971 18.5975C18.1983 18.9962 17.7205 19.307 17.1943 19.5098C16.4689 19.7788 15.7026 19.9207 14.929 19.9294C13.6433 19.9882 13.2569 20.0002 9.99961 20.0002C6.74235 20.0002 6.35706 19.9888 5.07137 19.9294" fill="url(#paint1_radial_2_23)"/>
<path d="M7.54452 10.0426C7.54456 9.5528 7.68985 9.07396 7.96203 8.6667C8.23421 8.25943 8.62105 7.94201 9.07363 7.7546C9.52621 7.56719 10.0242 7.5182 10.5046 7.61381C10.985 7.70943 11.4263 7.94536 11.7727 8.29178C12.119 8.63819 12.3548 9.07953 12.4503 9.55998C12.5458 10.0404 12.4967 10.5384 12.3092 10.9909C12.1217 11.4435 11.8042 11.8302 11.3968 12.1023C10.9895 12.3744 10.5106 12.5196 10.0208 12.5195C9.36397 12.5194 8.73409 12.2584 8.2697 11.7939C7.80532 11.3294 7.54447 10.6995 7.54452 10.0426ZM6.2055 10.0426C6.2055 10.7972 6.42926 11.5349 6.84849 12.1623C7.26772 12.7897 7.86359 13.2787 8.56074 13.5675C9.25789 13.8563 10.025 13.9318 10.7651 13.7846C11.5052 13.6374 12.185 13.274 12.7186 12.7405C13.2522 12.2069 13.6156 11.5271 13.7628 10.787C13.91 10.0469 13.8344 9.27975 13.5457 8.58259C13.2569 7.88544 12.7679 7.28957 12.1405 6.87034C11.513 6.45111 10.7754 6.22735 10.0208 6.22735C9.51975 6.22732 9.02361 6.32599 8.56071 6.51772C8.09781 6.70945 7.6772 6.99048 7.32291 7.34476C6.96862 7.69905 6.68759 8.11966 6.49587 8.58256C6.30414 9.04547 6.20547 9.5416 6.2055 10.0426ZM13.0955 6.07617C13.0954 6.25251 13.1476 6.42491 13.2455 6.57157C13.3434 6.71823 13.4826 6.83256 13.6455 6.90012C13.8084 6.96767 13.9877 6.98541 14.1606 6.95108C14.3336 6.91676 14.4925 6.83191 14.6172 6.70727C14.742 6.58264 14.8269 6.42382 14.8614 6.25089C14.8959 6.07796 14.8783 5.89868 14.8109 5.73574C14.7435 5.5728 14.6293 5.43351 14.4827 5.33547C14.3361 5.23744 14.1638 5.18508 13.9875 5.185C13.7511 5.1851 13.5244 5.27902 13.3573 5.44611C13.1901 5.6132 13.0961 5.83981 13.0959 6.07617M7.01942 16.0907C6.54826 16.0855 6.08151 15.9993 5.63961 15.8358C5.31914 15.7123 5.02808 15.523 4.78517 15.2802C4.54225 15.0374 4.35288 14.7464 4.22922 14.426C4.06564 13.9841 3.97942 13.5173 3.97432 13.0462C3.93824 12.263 3.93118 12.0277 3.93118 10.0436C3.93118 8.05951 3.93903 7.8248 3.97432 7.04088C3.98004 6.56978 4.06624 6.10312 4.22922 5.66107C4.35273 5.3405 4.54206 5.04937 4.78498 4.80644C5.0279 4.56352 5.31904 4.3742 5.63961 4.25068C6.08149 4.08711 6.54826 4.00089 7.01942 3.99578C7.80255 3.9597 8.03785 3.95265 10.0212 3.95265C12.0045 3.95265 12.24 3.96029 13.0239 3.99598C13.495 4.0017 13.9617 4.0879 14.4037 4.25088C14.7243 4.37441 15.0154 4.56373 15.2583 4.80665C15.5013 5.04957 15.6906 5.3407 15.8141 5.66127C15.9777 6.10316 16.0639 6.56992 16.069 7.04108C16.1051 7.82539 16.1122 8.05951 16.1122 10.0438C16.1122 12.0281 16.1049 12.2626 16.069 13.0466C16.0635 13.5177 15.9773 13.9844 15.8141 14.4264C15.6905 14.7468 15.5011 15.0378 15.2582 15.2806C15.0153 15.5234 14.7242 15.7126 14.4037 15.8362C13.9618 15.9997 13.4951 16.086 13.0239 16.0911C12.2408 16.1272 12.0055 16.1342 10.0212 16.1342C8.03687 16.1342 7.80236 16.127 7.01942 16.0911M6.95785 2.65794C6.34135 2.67006 5.73137 2.78675 5.15393 3.00303C4.6603 3.19389 4.212 3.48579 3.83777 3.86002C3.46355 4.23425 3.17164 4.68255 2.98079 5.17617C2.76453 5.75363 2.64784 6.3636 2.63569 6.9801C2.59903 7.77225 2.59079 8.02558 2.59079 10.0434C2.59079 12.0613 2.59922 12.3144 2.63569 13.1068C2.64784 13.7233 2.76453 14.3332 2.98079 14.9107C3.17165 15.4043 3.46356 15.8526 3.83779 16.2268C4.21201 16.601 4.66031 16.893 5.15393 17.0838C5.7314 17.3 6.34136 17.4167 6.95785 17.4289C7.7504 17.465 8.00334 17.4738 10.0212 17.4738C12.039 17.4738 12.2922 17.4654 13.0845 17.4289C13.701 17.4167 14.311 17.3001 14.8884 17.0838C15.3821 16.893 15.8303 16.601 16.2046 16.2268C16.5788 15.8526 16.8707 15.4043 17.0616 14.9107C17.2781 14.3333 17.3948 13.7233 17.4067 13.1068C17.4428 12.314 17.451 12.0613 17.451 10.0434C17.451 8.02558 17.4426 7.77245 17.4067 6.9801C17.3946 6.36359 17.2779 5.75362 17.0616 5.17617C16.8707 4.68264 16.5789 4.23441 16.2048 3.86019C15.8307 3.48598 15.3825 3.19402 14.889 3.00303C14.3116 2.78661 13.7016 2.66992 13.0851 2.65794C12.2928 2.62167 12.0396 2.61304 10.0222 2.61304C8.00471 2.61304 7.75098 2.62147 6.95824 2.65794" fill="white"/>
</g>
<defs>
<radialGradient id="paint0_radial_2_23" cx="0" cy="0" r="1" gradientUnits="userSpaceOnUse" gradientTransform="translate(1.29431 19.562) scale(25.3925)">
<stop offset="0.09" stop-color="#FA8F21"/>
<stop offset="0.78" stop-color="#D82D7E"/>
</radialGradient>
<radialGradient id="paint1_radial_2_23" cx="0" cy="0" r="1" gradientUnits="userSpaceOnUse" gradientTransform="translate(13.8533 18.9196) scale(22.3457)">
<stop offset="0.64" stop-color="#8C3AAA" stop-opacity="0"/>
<stop offset="1" stop-color="#8C3AAA"/>
</radialGradient>
<clipPath id="clip0_2_23">
<rect width="20" height="20" fill="white"/>
</clipPath>
</defs>
</svg>
