<svg width="20" height="20" viewBox="0 0 20 20" fill="none" xmlns="http://www.w3.org/2000/svg">
<path d="M5.08399 0H4.54647C4.09854 0.0223964 3.51624 0.0447928 3.26988 0.111982C2.86674 0.201568 2.486 0.31355 2.17245 0.470325C1.81411 0.649496 1.47816 0.895857 1.18701 1.18701C0.895857 1.47816 0.671893 1.79171 0.470325 2.17245C0.31355 2.486 0.179171 2.86674 0.111982 3.24748C0.0671892 3.51624 0.0223964 4.09854 0 4.54647V15.4535C0.0223964 15.9015 0.0447928 16.4838 0.111982 16.7301C0.201568 17.1333 0.31355 17.514 0.470325 17.8275C0.649496 18.1859 0.895857 18.5218 1.18701 18.813C1.47816 19.1041 1.79171 19.3281 2.17245 19.5297C2.486 19.6864 2.86674 19.8208 3.24748 19.888C3.51624 19.9328 4.09854 19.9776 4.54647 20H15.4535C15.9015 19.9776 16.4838 19.9552 16.7301 19.888C17.1333 19.7984 17.514 19.6864 17.8275 19.5297C18.1859 19.3505 18.5218 19.1041 18.813 18.813C19.1041 18.5218 19.3281 18.2083 19.5297 17.8275C19.6865 17.514 19.8208 17.1333 19.888 16.7525C19.9328 16.4838 19.9776 15.9015 20 15.4535V4.54647C19.9776 4.09854 19.9552 3.51624 19.888 3.26988C19.7984 2.86674 19.6865 2.486 19.5297 2.17245C19.3505 1.81411 19.1041 1.47816 18.813 1.18701C18.5218 0.895857 18.2083 0.671892 17.8275 0.470325C17.514 0.31355 17.1333 0.179171 16.7525 0.111982C16.4838 0.0671892 15.9015 0.0223964 15.4535 0H5.08399Z" fill="#24B4EA"/>
<path d="M15.9999 4.46062L13.7854 16.4589C13.7854 16.4589 13.4755 17.2908 12.6244 16.8918L7.51487 12.6815L7.49117 12.6691C8.18135 12.003 13.5333 6.83154 13.7672 6.59713C14.1293 6.23408 13.9045 6.01795 13.4841 6.29219L5.5786 11.6877L2.5287 10.5848C2.5287 10.5848 2.04874 10.4013 2.00256 10.0024C1.95578 9.60274 2.5445 9.38661 2.5445 9.38661L14.978 4.14459C14.978 4.14459 15.9999 3.66204 15.9999 4.46062Z" fill="#FEFEFE"/>
</svg>
