<svg width="21" height="20" viewBox="0 0 21 20" fill="none" xmlns="http://www.w3.org/2000/svg">
<path d="M16.1775 0H5.15571C2.67646 0 0.666626 2.00983 0.666626 4.48909V15.5109C0.666626 17.9902 2.67646 20 5.15571 20H16.1775C18.6568 20 20.6666 17.9902 20.6666 15.5109V4.48909C20.6666 2.00983 18.6568 0 16.1775 0Z" fill="#7D3DAF"/>
<path d="M15.7896 7.12174C15.6016 6.54795 15.2761 6.02889 14.8413 5.60987C14.4066 5.19085 13.8759 4.8846 13.2956 4.71786C11.5702 4.38669 9.79761 4.38669 8.07222 4.71786C7.48197 4.87432 6.93963 5.17445 6.49359 5.59148C6.04755 6.00852 5.71167 6.52948 5.51593 7.10789C5.19655 8.55684 5.19655 10.058 5.51593 11.5069C5.69712 12.0579 6.00439 12.5589 6.41329 12.9702C6.8222 13.3815 7.32144 13.6917 7.87132 13.8762V15.0469C7.87152 15.1408 7.89976 15.2324 7.9524 15.3101C8.00505 15.3878 8.07971 15.448 8.1668 15.483C8.25389 15.518 8.34944 15.5262 8.44121 15.5065C8.53298 15.4868 8.61677 15.4402 8.68185 15.3725L9.86647 14.1463H10.6354C11.5119 14.1456 12.3864 14.0621 13.2471 13.8969C13.8275 13.7302 14.3581 13.424 14.7928 13.0049C15.2276 12.5859 15.5531 12.0668 15.7411 11.4931C16.0724 10.0565 16.0889 8.56529 15.7896 7.12174ZM14.8543 11.2783C14.7095 11.6757 14.4756 12.0346 14.1706 12.3276C13.8656 12.6206 13.4976 12.8399 13.0947 12.9686C12.1817 13.1419 11.2527 13.2163 10.3237 13.1903C10.316 13.1871 10.3078 13.1854 10.2994 13.1854C10.2911 13.1854 10.2829 13.1871 10.2752 13.1903L9.40232 14.1325L8.48095 15.0746C8.46548 15.0893 8.44612 15.0992 8.42517 15.1031C8.40422 15.1071 8.38258 15.1049 8.36284 15.0969C8.3431 15.0888 8.3261 15.0753 8.31387 15.0578C8.30165 15.0403 8.29471 15.0197 8.2939 14.9984V13.0656C8.29269 13.0506 8.28663 13.0364 8.27663 13.0252C8.26663 13.0139 8.25324 13.0062 8.23848 13.0033C7.83564 12.8745 7.46762 12.6552 7.16262 12.3622C6.85762 12.0692 6.62373 11.7103 6.47887 11.3129C6.19121 10.0031 6.19121 8.64637 6.47887 7.3365C6.62373 6.93915 6.85762 6.58023 7.16262 6.28723C7.46762 5.99424 7.83564 5.77495 8.23848 5.64616C9.84042 5.33992 11.4859 5.33992 13.0878 5.64616C13.4907 5.77495 13.8587 5.99424 14.1637 6.28723C14.4687 6.58023 14.7026 6.93915 14.8474 7.3365C15.1376 8.64585 15.1399 10.0026 14.8543 11.3129V11.2783Z" fill="white"/>
<path d="M13.0116 10.9735C12.8675 10.8526 12.7172 10.7393 12.5614 10.634C12.402 10.5232 12.2496 10.4124 12.0833 10.3084C12.0103 10.2539 11.9216 10.2244 11.8305 10.2244C11.7394 10.2244 11.6507 10.2539 11.5776 10.3084C11.4252 10.4331 11.349 10.6756 11.1343 10.7033C11.0082 10.7066 10.8837 10.6755 10.774 10.6133C10.4448 10.4681 10.1506 10.2537 9.91156 9.98476C9.67249 9.71581 9.4941 9.39856 9.38851 9.05455C9.36715 9.01149 9.35603 8.96407 9.35603 8.916C9.35603 8.86793 9.36715 8.82051 9.38851 8.77745C9.4185 8.73218 9.45598 8.69235 9.49935 8.65968L9.64483 8.54884C9.74008 8.4828 9.80619 8.38257 9.82942 8.26902C9.85265 8.15547 9.8312 8.03734 9.76953 7.93921C9.57214 7.60183 9.33995 7.28605 9.07677 6.99705C9.02818 6.93077 8.9576 6.88392 8.87765 6.86489C8.79769 6.84585 8.71358 6.85587 8.64033 6.89314C8.43343 6.9898 8.24929 7.12908 8.09998 7.30187C8.00488 7.38699 7.93515 7.49673 7.89848 7.61897C7.86181 7.74122 7.85961 7.87122 7.89215 7.99463C8.00299 8.2648 8.11383 8.53498 8.23853 8.79823C8.50252 9.3538 8.84041 9.87113 9.24303 10.3362C9.97191 11.116 10.8702 11.718 11.8686 12.0958C11.9656 12.1373 12.0695 12.1581 12.1734 12.1928C12.2684 12.1715 12.3612 12.1414 12.4505 12.1027C12.7348 11.9479 12.961 11.7047 13.0948 11.4099C13.133 11.3387 13.1455 11.2564 13.1304 11.177C13.1153 11.0976 13.0734 11.0258 13.0116 10.9735Z" fill="white"/>
<path d="M10.67 6.57422H10.5938C10.571 6.57403 10.5485 6.57873 10.5276 6.588C10.5068 6.59728 10.4882 6.61091 10.4731 6.62798C10.458 6.64506 10.4468 6.66517 10.4401 6.68697C10.4334 6.70877 10.4315 6.73174 10.4345 6.75434C10.4345 6.87211 10.573 6.87211 10.67 6.88597C10.767 6.89982 10.9679 6.88597 11.1065 6.93446C11.5813 7.02292 12.0168 7.25734 12.3521 7.60505C12.6874 7.95276 12.9058 8.39642 12.9769 8.87419C12.9769 9.05431 13.0116 9.24135 13.0254 9.4284C13.0393 9.61544 13.0808 9.60852 13.1848 9.60852C13.2067 9.60788 13.2283 9.6025 13.248 9.59273C13.2678 9.58297 13.2851 9.56905 13.2989 9.55194C13.3128 9.53482 13.3227 9.51492 13.3281 9.49359C13.3335 9.47227 13.3342 9.45003 13.3302 9.4284C13.3302 9.20671 13.3302 8.98503 13.261 8.73564C13.1494 8.12956 12.8292 7.58164 12.356 7.18687C11.8827 6.7921 11.2863 6.57536 10.67 6.57422Z" fill="white"/>
<path d="M12.3397 9.10986C12.3331 9.15116 12.3331 9.19325 12.3397 9.23455C12.3491 9.26391 12.3675 9.28953 12.3924 9.30771C12.4173 9.32588 12.4474 9.33567 12.4782 9.33567C12.509 9.33567 12.5391 9.32588 12.564 9.30771C12.5889 9.28953 12.6074 9.26391 12.6168 9.23455C12.619 9.20458 12.619 9.17447 12.6168 9.14449V8.92281V8.83968C12.5839 8.55676 12.4812 8.28645 12.318 8.05306C12.1547 7.81967 11.936 7.63053 11.6815 7.50265C11.4171 7.36751 11.1262 7.29185 10.8294 7.28097C10.8101 7.27903 10.7906 7.28117 10.7722 7.28726C10.7537 7.29334 10.7368 7.30324 10.7224 7.31631C10.708 7.32937 10.6965 7.34531 10.6887 7.36309C10.6809 7.38087 10.6769 7.4001 10.677 7.41952C10.6741 7.43881 10.6753 7.4585 10.6804 7.4773C10.6856 7.49611 10.6948 7.51361 10.7072 7.52865C10.7196 7.54369 10.7351 7.55594 10.7526 7.56459C10.77 7.57324 10.7892 7.5781 10.8087 7.57885L11.058 7.62042C11.2285 7.64702 11.3942 7.69837 11.5499 7.77283C11.8072 7.90012 12.0216 8.10002 12.1665 8.34782C12.2874 8.58321 12.347 8.84532 12.3397 9.10986Z" fill="white"/>
<path d="M11.9517 9.00587C11.9581 8.96455 11.9581 8.92249 11.9517 8.88117C11.9526 8.76323 11.9302 8.64628 11.8857 8.53705C11.8412 8.42783 11.7755 8.32849 11.6924 8.24477C11.6093 8.16105 11.5105 8.09461 11.4016 8.04926C11.2927 8.00392 11.176 7.98058 11.058 7.98058C11.02 7.97803 10.9823 7.98921 10.9518 8.01209C10.9213 8.03497 10.9 8.06804 10.8918 8.10528C10.8878 8.12441 10.8876 8.14416 10.8914 8.16333C10.8952 8.18251 10.9029 8.20073 10.9139 8.21689C10.9248 8.23306 10.939 8.24684 10.9554 8.25742C10.9719 8.268 10.9903 8.27516 11.0095 8.27847C11.0857 8.27847 11.1689 8.27847 11.252 8.31311C11.3141 8.33066 11.3727 8.35878 11.4252 8.39624C11.5348 8.48031 11.6109 8.60064 11.6399 8.73569C11.6444 8.8049 11.6444 8.87431 11.6399 8.94352C11.6399 8.96504 11.6443 8.98634 11.6527 9.00614C11.6611 9.02593 11.6735 9.04382 11.689 9.05871C11.7046 9.0736 11.723 9.08519 11.7431 9.09277C11.7632 9.10036 11.7847 9.10379 11.8062 9.10285C11.8381 9.1073 11.8706 9.09988 11.8974 9.08201C11.9242 9.06413 11.9435 9.03704 11.9517 9.00587Z" fill="white"/>
</svg>
