<svg width="21" height="20" viewBox="0 0 21 20" fill="none" xmlns="http://www.w3.org/2000/svg">
<path d="M5.75061 0H5.2131C4.76517 0.0223964 4.18286 0.0447928 3.9365 0.111982C3.53337 0.201568 3.15263 0.31355 2.83908 0.470325C2.48074 0.649496 2.14479 0.895857 1.85364 1.18701C1.56248 1.47816 1.33852 1.79171 1.13695 2.17245C0.980176 2.486 0.845797 2.86674 0.778608 3.24748C0.733815 3.51624 0.689022 4.09854 0.666626 4.54647V15.4535C0.689022 15.9015 0.711419 16.4838 0.778608 16.7301C0.868194 17.1333 0.980176 17.514 1.13695 17.8275C1.31612 18.1859 1.56248 18.5218 1.85364 18.813C2.14479 19.1041 2.45834 19.3281 2.83908 19.5297C3.15263 19.6864 3.53337 19.8208 3.91411 19.888C4.18286 19.9328 4.76517 19.9776 5.2131 20H16.1202C16.5681 19.9776 17.1504 19.9552 17.3967 19.888C17.7999 19.7984 18.1806 19.6864 18.4942 19.5297C18.8525 19.3505 19.1885 19.1041 19.4796 18.813C19.7708 18.5218 19.9947 18.2083 20.1963 17.8275C20.3531 17.514 20.4875 17.1333 20.5546 16.7525C20.5994 16.4838 20.6442 15.9015 20.6666 15.4535V4.54647C20.6442 4.09854 20.6218 3.51624 20.5546 3.26988C20.4651 2.86674 20.3531 2.486 20.1963 2.17245C20.0171 1.81411 19.7708 1.47816 19.4796 1.18701C19.1885 0.895857 18.8749 0.671892 18.4942 0.470325C18.1806 0.31355 17.7999 0.179171 17.4191 0.111982C17.1504 0.0671892 16.5681 0.0223964 16.1202 0H5.75061Z" fill="url(#paint0_linear_2_7)"/>
<path d="M14.306 11.0639C14.1269 10.9744 13.231 10.5488 13.0742 10.4816C12.9174 10.4144 12.7831 10.392 12.6711 10.5712C12.5591 10.7504 12.2008 11.1535 12.1112 11.2655C11.9992 11.3775 11.9096 11.3999 11.7304 11.3103C11.5513 11.2207 10.969 11.0415 10.2747 10.4368C9.73716 9.96651 9.37881 9.38421 9.26683 9.20504C9.15485 9.02587 9.26683 8.93628 9.35642 8.84669C9.446 8.75711 9.53559 8.64513 9.62517 8.53314C9.71476 8.42116 9.73716 8.35397 9.80435 8.24199C9.87154 8.13001 9.82674 8.01803 9.78195 7.92844C9.73716 7.83886 9.37881 6.9654 9.22204 6.60705C9.06526 6.27111 8.93089 6.3159 8.8189 6.2935H8.48296C8.37097 6.2935 8.16941 6.3383 8.01263 6.51747C7.85586 6.69664 7.38553 7.12217 7.38553 7.99563C7.38553 8.86909 8.03503 9.69776 8.12461 9.83214C8.2142 9.94412 9.40121 11.7358 11.1929 12.4973C11.6185 12.6765 11.9544 12.7885 12.2232 12.878C12.6487 13.0124 13.0518 12.99 13.3654 12.9452C13.7013 12.9004 14.4404 12.5197 14.5748 12.1166C14.7316 11.7134 14.7316 11.3551 14.6868 11.2879C14.5972 11.1983 14.4852 11.1535 14.306 11.0639ZM10.8794 15.6776C9.80435 15.6776 8.77411 15.3864 7.85586 14.8489L7.63189 14.7146L5.39225 15.2969L5.99696 13.1244L5.86258 12.9004C5.28027 11.9598 4.96672 10.8848 4.96672 9.76495C4.96672 6.51747 7.63189 3.87469 10.9018 3.87469C12.4471 3.87469 13.9477 4.47939 15.0675 5.59921C16.1873 6.71903 16.792 8.1972 16.792 9.76495C16.792 13.0124 14.1269 15.6776 10.8794 15.6776ZM15.9186 4.74815C14.5748 3.40437 12.7831 2.66528 10.8794 2.66528C6.96 2.66528 3.75731 5.84557 3.75731 9.76495C3.75731 11.0191 4.09326 12.2286 4.69796 13.3036L3.69012 16.9766L7.45272 15.9912C8.48296 16.5511 9.66997 16.8646 10.857 16.8646C14.7764 16.8646 17.979 13.6843 17.979 9.76495C18.0014 7.88365 17.2624 6.09194 15.9186 4.74815Z" fill="white"/>
<defs>
<linearGradient id="paint0_linear_2_7" x1="10.6733" y1="0.00447928" x2="10.6733" y2="19.9866" gradientUnits="userSpaceOnUse">
<stop stop-color="#62FA7F"/>
<stop offset="0.686" stop-color="#22CC40"/>
<stop offset="1" stop-color="#05B723"/>
</linearGradient>
</defs>
</svg>
